<svg xmlns="http://www.w3.org/2000/svg" version="1.1" xmlns:xlink="http://www.w3.org/1999/xlink" xmlns:svgjs="http://svgjs.dev/svgjs" width="175" height="105" viewBox="0 0 2000 404"><g transform="matrix(1,0,0,1,-1.2121212121212466,-0.33913446226222277)"><svg viewBox="0 0 396 80" data-background-color="#ffffff" preserveAspectRatio="xMidYMid meet" height="404" width="2000" xmlns="http://www.w3.org/2000/svg" xmlns:xlink="http://www.w3.org/1999/xlink"><g id="tight-bounds" transform="matrix(1,0,0,1,0.2400000000000091,0.06715533906182714)"><svg viewBox="0 0 395.52 79.86568932187636" height="79.86568932187636" width="395.52"><g><svg viewBox="0 0 519.7340215466514 104.94770402218411" height="79.86568932187636" width="395.52"><g transform="matrix(1,0,0,1,0,14.50434983229897)"><svg viewBox="0 0 395.52000000000004 75.93900435758617" height="75.93900435758617" width="395.52000000000004"><g id="textblocktransform"><svg viewBox="0 0 395.52000000000004 75.93900435758617" height="75.93900435758617" width="395.52000000000004" id="textblock"><g><svg viewBox="0 0 395.52000000000004 75.93900435758617" height="75.93900435758617" width="395.52000000000004"><g transform="matrix(1,0,0,1,0,0)"><svg width="395.52000000000004" viewBox="3.49 -35.01 184.87 35.5" height="75.93900435758617" data-palette-color="#3c2c32"><path d="M20.04 0L3.49 0 3.49-35.01 6.64-35.01 6.64-3 20.04-3 20.04 0ZM40.74-6.86L40.74-6.86Q40.74-5.35 40.17-4 39.6-2.66 38.6-1.66 37.6-0.66 36.25-0.09 34.91 0.49 33.4 0.49L33.4 0.49 31.39 0.49Q29.88 0.49 28.54-0.09 27.19-0.66 26.19-1.66 25.19-2.66 24.62-4 24.05-5.35 24.05-6.86L24.05-6.86 24.05-18.14Q24.05-19.65 24.62-21 25.19-22.34 26.19-23.34 27.19-24.34 28.54-24.91 29.88-25.49 31.39-25.49L31.39-25.49 33.4-25.49Q34.91-25.49 36.25-24.91 37.6-24.34 38.6-23.34 39.6-22.34 40.17-21 40.74-19.65 40.74-18.14L40.74-18.14 40.74-12.26 27.05-12.26 27.05-6.69Q27.05-5.79 27.39-4.99 27.73-4.2 28.32-3.61 28.9-3.03 29.7-2.69 30.49-2.34 31.39-2.34L31.39-2.34 33.4-2.34Q34.3-2.34 35.09-2.69 35.89-3.03 36.47-3.61 37.06-4.2 37.4-4.99 37.74-5.79 37.74-6.69L37.74-6.69 37.74-8.35 40.74-7.86 40.74-6.86ZM37.74-14.6L37.74-18.31Q37.74-19.21 37.4-20.01 37.06-20.8 36.47-21.39 35.89-21.97 35.09-22.31 34.3-22.66 33.4-22.66L33.4-22.66 31.39-22.66Q30.49-22.66 29.7-22.31 28.9-21.97 28.32-21.39 27.73-20.8 27.39-20.01 27.05-19.21 27.05-18.31L27.05-18.31 27.05-14.6 37.74-14.6ZM63.45 0L60.44 0 60.44-18.31Q60.44-19.21 60.1-20.01 59.76-20.8 59.17-21.39 58.59-21.97 57.8-22.31 57-22.66 56.1-22.66L56.1-22.66 54.1-22.66Q53.19-22.66 52.4-22.31 51.61-21.97 51.02-21.39 50.43-20.8 50.09-20.01 49.75-19.21 49.75-18.31L49.75-18.31 49.75 0 46.75 0 46.75-25 47.75-25 49.38-22.46Q50.41-23.85 51.96-24.67 53.51-25.49 55.34-25.49L55.34-25.49 56.1-25.49Q57.61-25.49 58.95-24.91 60.3-24.34 61.3-23.34 62.3-22.34 62.87-21 63.45-19.65 63.45-18.14L63.45-18.14 63.45 0ZM86.15 0L85.15 0 83.49-2.54Q82.46-1.15 80.93-0.33 79.39 0.49 77.56 0.49L77.56 0.49 76.8 0.49Q75.29 0.49 73.94-0.09 72.6-0.66 71.6-1.66 70.6-2.66 70.02-4 69.45-5.35 69.45-6.86L69.45-6.86 69.45-18.14Q69.45-19.65 70.02-21 70.6-22.34 71.6-23.34 72.6-24.34 73.94-24.91 75.29-25.49 76.8-25.49L76.8-25.49 77.56-25.49Q79.24-25.49 80.68-24.8 82.12-24.12 83.15-22.9L83.15-22.9 83.15-35.01 86.15-35.01 86.15 0ZM83.15-6.69L83.15-18.31Q83.15-19.21 82.81-20.01 82.46-20.8 81.88-21.39 81.29-21.97 80.5-22.31 79.7-22.66 78.8-22.66L78.8-22.66 76.8-22.66Q75.9-22.66 75.1-22.31 74.31-21.97 73.72-21.39 73.14-20.8 72.8-20.01 72.45-19.21 72.45-18.31L72.45-18.31 72.45-6.69Q72.45-5.79 72.8-4.99 73.14-4.2 73.72-3.61 74.31-3.03 75.1-2.69 75.9-2.34 76.8-2.34L76.8-2.34 78.8-2.34Q79.7-2.34 80.5-2.69 81.29-3.03 81.88-3.61 82.46-4.2 82.81-4.99 83.15-5.79 83.15-6.69L83.15-6.69ZM124.35 0L122.69 0 108.09-25.49 107.8-27 107.8 0 104.65 0 104.65-35.01 106.29-35.01 120.89-9.5 121.2-8.01 121.2-35.01 124.35-35.01 124.35 0ZM147.57-6.86L147.57-6.86Q147.57-5.35 146.99-4 146.42-2.66 145.42-1.66 144.42-0.66 143.08-0.09 141.73 0.49 140.22 0.49L140.22 0.49 138.22 0.49Q136.7 0.49 135.36-0.09 134.02-0.66 133.02-1.66 132.02-2.66 131.44-4 130.87-5.35 130.87-6.86L130.87-6.86 130.87-18.14Q130.87-19.65 131.44-21 132.02-22.34 133.02-23.34 134.02-24.34 135.36-24.91 136.7-25.49 138.22-25.49L138.22-25.49 140.22-25.49Q141.73-25.49 143.08-24.91 144.42-24.34 145.42-23.34 146.42-22.34 146.99-21 147.57-19.65 147.57-18.14L147.57-18.14 147.57-12.26 133.87-12.26 133.87-6.69Q133.87-5.79 134.21-4.99 134.56-4.2 135.14-3.61 135.73-3.03 136.52-2.69 137.31-2.34 138.22-2.34L138.22-2.34 140.22-2.34Q141.12-2.34 141.92-2.69 142.71-3.03 143.3-3.61 143.88-4.2 144.22-4.99 144.57-5.79 144.57-6.69L144.57-6.69 144.57-8.35 147.57-7.86 147.57-6.86ZM144.57-14.6L144.57-18.31Q144.57-19.21 144.22-20.01 143.88-20.8 143.3-21.39 142.71-21.97 141.92-22.31 141.12-22.66 140.22-22.66L140.22-22.66 138.22-22.66Q137.31-22.66 136.52-22.31 135.73-21.97 135.14-21.39 134.56-20.8 134.21-20.01 133.87-19.21 133.87-18.31L133.87-18.31 133.87-14.6 144.57-14.6ZM170.76-6.35L170.76-6.35Q170.76-4.83 170.15-3.58 169.54-2.32 168.49-1.42 167.44-0.51 166.06-0.01 164.68 0.49 163.17 0.49L163.17 0.49 161.16 0.49Q159.65 0.49 158.27-0.09 156.89-0.66 155.85-1.66 154.82-2.66 154.19-4 153.57-5.35 153.57-6.86L153.57-6.86 153.57-7.86 156.57-8.35 156.57-6.69Q156.57-5.79 156.95-4.99 157.33-4.2 157.97-3.61 158.6-3.03 159.43-2.69 160.26-2.34 161.16-2.34L161.16-2.34 163.17-2.34Q164.07-2.34 164.9-2.61 165.73-2.88 166.38-3.38 167.02-3.88 167.4-4.59 167.78-5.3 167.78-6.2L167.78-6.2Q167.78-7.54 167.19-8.4 166.61-9.25 165.64-9.83 164.68-10.4 163.45-10.78 162.21-11.16 160.92-11.54 159.63-11.91 158.39-12.4 157.16-12.89 156.2-13.68 155.23-14.48 154.65-15.67 154.06-16.87 154.06-18.65L154.06-18.65Q154.06-20.17 154.65-21.42 155.23-22.68 156.23-23.58 157.23-24.49 158.56-24.99 159.89-25.49 161.41-25.49L161.41-25.49 163.17-25.49Q164.68-25.49 166.02-24.91 167.37-24.34 168.37-23.34 169.37-22.34 169.94-21 170.51-19.65 170.51-18.14L170.51-18.14 170.51-18.04 167.51-17.55 167.51-18.31Q167.51-19.21 167.17-20.01 166.83-20.8 166.24-21.39 165.66-21.97 164.86-22.31 164.07-22.66 163.17-22.66L163.17-22.66 161.41-22.66Q160.5-22.66 159.71-22.39 158.92-22.12 158.33-21.62 157.75-21.12 157.4-20.41 157.06-19.7 157.06-18.8L157.06-18.8Q157.06-17.5 157.65-16.69 158.23-15.87 159.2-15.31 160.16-14.75 161.4-14.37 162.63-13.99 163.91-13.59 165.19-13.18 166.43-12.67 167.66-12.16 168.62-11.35 169.59-10.55 170.17-9.34 170.76-8.13 170.76-6.35ZM188.36 0L185.62 0Q184.26 0 183.05-0.51 181.84-1.03 180.95-1.93 180.06-2.83 179.53-4.03 179.01-5.22 179.01-6.59L179.01-6.59 179.01-22.14 174.52-22.14 174.52-25 179.01-25 179.01-31.01 182.01-31.49 182.01-25 188.36-25 188.36-22.14 182.01-22.14 182.01-6.45Q182.01-5.69 182.29-5.04 182.57-4.39 183.06-3.91 183.55-3.42 184.21-3.14 184.87-2.86 185.62-2.86L185.62-2.86 188.36-2.86 188.36 0Z" opacity="1" transform="matrix(1,0,0,1,0,0)" fill="#3c2c32" class="wordmark-text-0" data-fill-palette-color="primary" id="text-0"></path></svg></g></svg></g></svg></g></svg></g><g transform="matrix(1,0,0,1,413.44737639272154,0)"><svg viewBox="0 0 106.28664515392988 104.94770402218411" height="104.94770402218411" width="106.28664515392988"><g><svg xmlns="http://www.w3.org/2000/svg" xmlns:xlink="http://www.w3.org/1999/xlink" version="1.1" x="0" y="0" viewBox="4.132999999999999 4.572 90.81200000000001 89.66799999999999" enable-background="new 0 0 100 100" xml:space="preserve" height="104.94770402218411" width="106.28664515392988" class="icon-icon-0" data-fill-palette-color="accent" id="icon-0"><path d="M88.077 34.411h-4.475l-4.824 3.383h7.867c0.373 0 0.742 0.047 1.093 0.132 2.162 0.504 3.77 2.461 3.77 4.793v43.093c2.051-1.203 3.437-3.446 3.437-6.02V41.372C94.944 37.525 91.868 34.411 88.077 34.411z" fill="#3b59e3" data-fill-palette-color="accent"></path><path d="M86.837 40.688H10.199c-0.801 0-1.446-0.649-1.446-1.446 0-0.801 0.646-1.452 1.446-1.452h5.903l1.957-1.414 2.72-1.965h-9.714c-3.829 0-6.932 3.114-6.932 6.952v1.351 44.57c0 3.843 3.103 6.956 6.932 6.956h70.861c3.827 0 6.933-3.113 6.933-6.956v-44.57C88.854 41.595 87.949 40.688 86.837 40.688z" fill="#3b59e3" data-fill-palette-color="accent"></path><g fill="#3b59e3" data-fill-palette-color="accent"><path fill="none" d="M49.752 26.299c-5.534-0.29-10.249 3.943-10.524 9.453-0.036 0.745 0.016 1.472 0.137 2.177h19.797c0.062-0.368 0.106-0.741 0.126-1.122C59.561 31.292 55.29 26.588 49.752 26.299z"></path><path d="M39.228 35.752c0.275-5.509 4.991-9.742 10.524-9.453 5.538 0.289 9.808 4.992 9.536 10.507-0.02 0.381-0.064 0.754-0.126 1.122h15.577l9.822-7.292L64.814 4.572 19.895 37.929h19.47C39.244 37.224 39.192 36.497 39.228 35.752z" fill="#3b59e3" data-fill-palette-color="accent"></path></g><polygon points="40.884,5.019 22.209,33.399 51.353,11.92 " fill="#3b59e3" data-fill-palette-color="accent"></polygon></svg></g></svg></g></svg></g><defs></defs></svg><rect width="395.52" height="79.86568932187636" fill="none" stroke="none" visibility="hidden"></rect></g></svg></g></svg>